# xmcd CD database file
#
# Track frame offsets:
#	150
#	3954
#	18159
#	26486
#	37699
#	49363
#	61910
#	70853
#	81098
#	91096
#	110843
#	120517
#	131030
#	143723
#	154277
#	164321
#
# Disc length: 2520 seconds
#
# Revision: 1
# Processed by: cddbd v1.5.1PL2 Copyright (c) Steve Scherf et al.
# Submitted via: CDValet v3.40 - Copyright (c) 1996 - 1998 Greg Leichner
#
DISCID=c609d610
DTITLE=The Mistreaters - Live At The Circle A - New Years Eve 2
DTITLE=005
DYEAR=1900
DGENRE=
TTITLE0=Intro
TTITLE1=New Song
TTITLE2=The Oher Man
TTITLE3=Dude Squad
TTITLE4=The Nathan Didley Song
TTITLE5=Hard On Eyes
TTITLE6=Push You
TTITLE7=Lie To Me
TTITLE8=Lovely One
TTITLE9=Juan Burguesa
TTITLE10=Oh, Didn't I Say
TTITLE11=This Ain't Me
TTITLE12=New Song
TTITLE13=Personal Space Invader
TTITLE14=Good Thing
TTITLE15=Stranded
EXTD=
EXTT0=
EXTT1=
EXTT2=
EXTT3=
EXTT4=
EXTT5=
EXTT6=
EXTT7=
EXTT8=
EXTT9=
EXTT10=
EXTT11=
EXTT12=
EXTT13=
EXTT14=
EXTT15=
PLAYORDER=
